<svg width="118" height="76" viewBox="0 0 118 76" fill="none" xmlns="http://www.w3.org/2000/svg">
<g id="Group">
<path id="Vector" d="M43.354 72.2033C46.5341 71.5398 49.2794 70.3273 51.613 68.5199C53.672 66.9642 55.4108 65.0424 56.8063 62.7546C58.9797 59.3 60.055 55.4336 60.055 51.0868C60.055 46.74 59.0941 43.3082 57.1952 40.357C55.2964 37.4057 52.4824 35.2551 48.7304 33.9053C51.1783 32.647 53.0543 31.2515 54.3126 29.7415C56.5775 27.0419 57.6986 23.4272 57.6986 18.9659C57.6986 14.5047 56.5775 10.9129 54.3355 7.80143C50.6063 2.74537 44.292 0.137269 35.3696 0H0V73.1642H32.9673C36.6736 73.1642 40.1282 72.821 43.3082 72.1804L43.354 72.2033ZM14.6191 12.7431H30.5423C34.0426 12.7431 36.9253 13.132 39.1902 13.887C41.8212 14.9852 43.1252 17.2272 43.1252 20.636C43.1252 23.7246 42.1415 25.8522 40.1511 27.0648C38.1835 28.2773 35.5983 28.8722 32.4183 28.8722H14.642V12.7431H14.6191ZM14.6191 60.4897V40.9747H32.6242C35.7813 40.9975 38.2064 41.4094 39.9452 42.2101C43.0566 43.6285 44.6123 46.2366 44.6123 50.0573C44.6123 54.5643 43.0108 57.607 39.8079 59.1856C38.0463 60.055 35.5754 60.4668 32.3954 60.4668H14.6191V60.4897Z" fill="#F3E1C7"/>
<g id="Group_2">
<path id="Vector_2" d="M72.4551 68.3827C77.9687 72.821 84.306 75.0402 91.5126 75.0402C100.229 75.0402 107.024 72.4092 111.874 67.1473C114.986 63.8299 116.747 60.5812 117.113 57.3783H102.677C101.831 58.9569 100.87 60.2152 99.7716 61.1074C97.7583 62.7547 95.1273 63.6012 91.9244 63.6012C88.8816 63.6012 86.2964 62.9148 84.123 61.565C80.5768 59.3916 78.678 55.5709 78.4721 50.1488H117.891C117.96 45.4817 117.8 41.8898 117.433 39.419C116.77 35.1866 115.329 31.4345 113.132 28.2316C110.684 24.594 107.55 21.9173 103.775 20.2243C100 18.5313 95.7679 17.6848 91.055 17.6848C83.1392 17.6848 76.6876 20.1785 71.7001 25.1888C66.7356 30.1763 64.2419 37.3829 64.2419 46.74C64.2419 56.7377 66.9873 63.9672 72.5009 68.4055L72.4551 68.3827ZM82.5444 32.3954C84.5576 30.3364 87.3487 29.3069 90.9864 29.3069C94.3266 29.3069 97.1177 30.2906 99.3827 32.2124C101.648 34.157 102.883 37.0168 103.158 40.7688H78.7695C79.2728 37.2456 80.5311 34.4545 82.5444 32.3954Z" fill="#F3E1C7"/>
<path id="Vector_3" d="M105.972 4.23242H74.1712V11.622H105.972V4.23242Z" fill="#F3E1C7"/>
</g>
</g>
</svg>
