<svg width="90" height="90" viewBox="0 0 90 90" fill="none" xmlns="http://www.w3.org/2000/svg">
<path id="Vector" d="M45 0C20.1544 0 0 20.1493 0 45.0114C0 69.8735 20.1544 90 45 90C69.8456 90 90 69.8508 90 45.0114C90 20.172 69.8684 0 45 0ZM45 7.83203C53.54 7.83203 61.374 10.7463 67.6594 15.5958C63.1503 21.4242 56.9104 26.0233 48.9626 29.3929C45.1594 22.426 40.8097 15.6185 35.8907 8.99317C38.8057 8.24184 41.8573 7.80926 45 7.80926V7.83203ZM28.2389 11.8619C33.2262 18.3962 37.667 25.1353 41.5157 32.0339C32.4064 34.7205 21.5208 36.0865 8.9499 36.1776C11.5461 25.5452 18.7196 16.7114 28.2616 11.8619H28.2389ZM7.83401 44.9886C7.83401 44.6699 7.87956 44.3511 7.87956 44.0324C22.3178 44.0324 34.7748 42.3476 45.205 39.0691C46.0703 40.8449 46.913 42.6436 47.71 44.4422C35.0253 48.4037 24.5951 56.5318 16.4423 68.7351C11.0678 62.2919 7.83401 54.0046 7.83401 44.9886ZM45 82.168C36.3917 82.168 28.4894 79.2082 22.1812 74.2904C29.5597 62.7018 38.9879 55.1657 50.6705 51.6823C54.1549 60.7665 56.7055 70.1012 58.3451 79.6636C54.2004 81.2573 49.7141 82.168 45 82.168ZM65.6554 75.9069C64.0157 67.0959 61.6017 58.467 58.459 50.043C65.496 49.0412 73.2389 49.3144 81.7105 50.7716C80.0709 61.2219 74.1043 70.2378 65.6554 75.8841V75.9069ZM55.4529 42.6208C54.542 40.5034 53.5855 38.4088 52.5835 36.3142C61.2374 32.5576 68.206 27.4804 73.3983 21.0144C78.4539 27.0023 81.6422 34.5839 82.0977 42.894C72.4418 41.323 63.5602 41.232 55.4529 42.6208Z" fill="#F3E1C7"/>
</svg>
