<svg width="90" height="90" viewBox="0 0 90 90" fill="none" xmlns="http://www.w3.org/2000/svg">
<g id="Group">
<path id="Vector" d="M45 8.10319C57.0182 8.10319 58.4294 8.14871 63.1866 8.37633C67.5797 8.58118 69.9469 9.30956 71.5402 9.92413C73.6343 10.7436 75.1366 11.7223 76.7071 13.2929C78.2777 14.8634 79.2564 16.3657 80.0759 18.4598C80.6904 20.0531 81.4188 22.4203 81.6237 26.8134C81.8285 31.5478 81.8968 32.9818 81.8968 45C81.8968 57.0182 81.8513 58.4294 81.6237 63.1866C81.4188 67.5797 80.6904 69.9469 80.0759 71.5402C79.2564 73.6343 78.2777 75.1366 76.7071 76.7071C75.1366 78.2777 73.6343 79.2564 71.5402 80.0759C69.9469 80.6904 67.5797 81.4188 63.1866 81.6237C58.4522 81.8285 57.0182 81.8741 45 81.8741C32.9818 81.8741 31.5706 81.8285 26.8134 81.6237C22.4203 81.4188 20.0531 80.6904 18.4598 80.0759C16.3657 79.2564 14.8634 78.2777 13.2929 76.7071C11.7223 75.1366 10.7436 73.6343 9.92413 71.5402C9.30956 69.9469 8.58118 67.5797 8.37633 63.1866C8.17147 58.4522 8.12595 57.0182 8.12595 45C8.12595 32.9818 8.17147 31.5706 8.37633 26.8134C8.58118 22.4203 9.30956 20.0531 9.92413 18.4598C10.7436 16.3657 11.7223 14.8634 13.2929 13.2929C14.8634 11.7223 16.3657 10.7436 18.4598 9.92413C20.0531 9.30956 22.4203 8.58118 26.8134 8.37633C31.5478 8.14871 32.9818 8.10319 45 8.10319ZM45 0C32.7769 0 31.2519 0.0455235 26.4492 0.273141C21.6692 0.500759 18.3915 1.2519 15.5235 2.36722C12.5645 3.52807 10.0607 5.05311 7.5569 7.5569C5.05311 10.0607 3.52807 12.5645 2.36722 15.5235C1.2519 18.3915 0.500765 21.6464 0.273147 26.4492C0.0455298 31.2519 0 32.7769 0 45C0 57.2231 0.0455298 58.7481 0.273147 63.5508C0.500765 68.3308 1.2519 71.6085 2.36722 74.4765C3.50531 77.4355 5.05311 79.9393 7.5569 82.4431C10.0607 84.9469 12.5645 86.4719 15.5235 87.6328C18.3915 88.7481 21.6464 89.4992 26.4492 89.7269C31.2519 89.9545 32.7769 90 45 90C57.2231 90 58.7481 89.9545 63.5508 89.7269C68.3308 89.4992 71.6085 88.7481 74.4765 87.6328C77.4355 86.4719 79.9393 84.9469 82.4431 82.4431C84.9469 79.9393 86.4719 77.4355 87.6328 74.4765C88.7481 71.6085 89.4992 68.3536 89.7269 63.5508C89.9545 58.7481 90 57.2231 90 45C90 32.7769 89.9545 31.2519 89.7269 26.4492C89.4992 21.6692 88.7481 18.3915 87.6328 15.5235C86.4719 12.5645 84.9469 10.0607 82.4431 7.5569C79.9393 5.05311 77.4355 3.52807 74.4765 2.36722C71.6085 1.2519 68.3536 0.500759 63.5508 0.273141C58.7481 0.0455235 57.2231 0 45 0Z" fill="#F3E1C7"/>
<path id="Vector_2" d="M45.0004 21.8969C32.231 21.8969 21.8972 32.2307 21.8972 45C21.8972 57.7694 32.231 68.1032 45.0004 68.1032C57.7697 68.1032 68.1036 57.7694 68.1036 45C68.1036 32.2307 57.7697 21.8969 45.0004 21.8969ZM45.0004 59.9773C36.7151 59.9773 30.0004 53.2626 30.0004 44.9773C30.0004 36.692 36.7151 29.9773 45.0004 29.9773C53.2857 29.9773 60.0004 36.692 60.0004 44.9773C60.0004 53.2626 53.2857 59.9773 45.0004 59.9773Z" fill="#F3E1C7"/>
<path id="Vector_3" d="M74.408 20.9635C74.408 23.9453 71.9952 26.358 69.0134 26.358C66.0316 26.358 63.6189 23.9453 63.6189 20.9635C63.6189 17.9817 66.0316 15.569 69.0134 15.569C71.9952 15.569 74.408 17.9817 74.408 20.9635Z" fill="#F3E1C7"/>
</g>
</svg>
