<svg width="181" height="40" viewBox="0 0 181 40" fill="none" xmlns="http://www.w3.org/2000/svg">
<g id="Group 1">
<path id="Vector" d="M48.7231 0H38.8227C38.7707 0 38.7217 0.04328 38.7126 0.0927429L36.7876 10.0935C36.7784 10.1461 36.812 10.1863 36.861 10.1863H46.6696L43.0369 29.0687C43.0032 29.2511 42.8961 29.4273 42.7431 29.5541C42.5656 29.7055 42.3422 29.7766 42.131 29.7488C37.8618 29.2264 35.8909 24.5676 33.3691 17.5191C30.578 9.71636 27.1044 0 15.937 0C15.885 0 15.836 0.04328 15.8268 0.0927429L14.0671 9.23719C14.0273 9.44122 13.911 9.63289 13.7396 9.7751C13.5713 9.9204 13.3663 10.0008 13.1643 10.0008H4.11161C4.05958 10.0008 4.01061 10.0441 4.00143 10.0935L0.188165 29.9003C-0.882977 35.468 2.7283 39.9969 8.24009 39.9969H18.1405C18.1925 39.9969 18.2415 39.9536 18.2507 39.9042L20.1757 29.9034C20.1849 29.8508 20.1512 29.8107 20.1022 29.8107H10.2936L13.9263 10.9282C13.96 10.7458 14.0671 10.5696 14.2201 10.4398C14.3946 10.2914 14.6241 10.2203 14.8322 10.245C19.1137 10.7705 20.9989 15.216 23.5972 22.4809C26.3883 30.2867 29.8649 40 41.0262 40C41.0782 40 41.1272 39.9567 41.1364 39.9073L42.8961 30.769C42.9359 30.565 43.0522 30.3702 43.2236 30.2249C43.3919 30.0827 43.6031 29.9992 43.8051 29.9992H52.8516C52.9037 29.9992 52.9526 29.9559 52.9618 29.9065L56.772 10.1028C57.8432 4.53513 54.2319 0.00618286 48.7201 0.00618286L48.7231 0Z" fill="#F45325"/>
<g id="Group">
<path id="Vector_2" d="M79.7923 14.2545C78.3325 12.7428 76.4198 11.9885 74.051 11.9885C72.8054 11.9885 71.6639 12.2358 70.6234 12.7305C69.5859 13.2251 68.729 13.9083 68.0587 14.7801V12.2791H63.0366V32.3549H68.0587V21.2659C68.0587 19.6738 68.4597 18.4465 69.2615 17.5902C70.0603 16.7308 71.1559 16.3042 72.5422 16.3042C73.9286 16.3042 74.9844 16.7339 75.774 17.5902C76.5606 18.4496 76.9553 19.6738 76.9553 21.2659V32.3549H81.9775V20.5796C81.9775 17.8715 81.2491 15.7632 79.7923 14.2545Z" fill="#F3E1C7"/>
<path id="Vector_3" d="M104.992 21.8811C104.992 19.9273 104.579 18.193 103.755 16.6813C102.929 15.1727 101.769 14.0072 100.273 13.1849C98.776 12.3626 97.0867 11.9514 95.1954 11.9514C93.304 11.9514 91.5014 12.3749 89.9927 13.222C88.4839 14.069 87.3118 15.2747 86.4793 16.8451C85.6408 18.4156 85.2215 20.2426 85.2215 22.317C85.2215 24.3913 85.6469 26.1844 86.4946 27.7517C87.3424 29.3222 88.5267 30.5371 90.0447 31.3965C91.5657 32.2559 93.2796 32.6794 95.1923 32.6794C97.5611 32.6794 99.5564 32.0612 101.185 30.8153C102.813 29.5695 103.911 27.9805 104.484 26.0514H99.0668C98.2803 27.6682 96.952 28.4782 95.0852 28.4782C93.7937 28.4782 92.7042 28.067 91.8228 27.2447C90.9383 26.4255 90.4334 25.2909 90.314 23.838H104.842C104.937 23.2568 104.986 22.6045 104.986 21.8811H104.992ZM90.3569 20.4343C90.5497 19.0803 91.0699 18.023 91.9177 17.2625C92.7654 16.502 93.8121 16.1218 95.0546 16.1218C96.3706 16.1218 97.4845 16.5144 98.3935 17.2996C99.2994 18.0848 99.7676 19.1297 99.789 20.4374H90.3538L90.3569 20.4343Z" fill="#F3E1C7"/>
<path id="Vector_4" d="M117.662 22.2798L124.193 12.2791H118.813L115.155 18.4774L111.1 12.2791H105.432L111.997 22.2798L105.503 32.3548H110.886L114.51 26.1256L118.598 32.3548H124.266L117.665 22.2798H117.662Z" fill="#F3E1C7"/>
<path id="Vector_5" d="M128.199 7.31421L133.255 12.279V7.31421H128.199Z" fill="#F3E1C7"/>
<path id="Vector_6" d="M137.704 16.4463V12.2791H125.83V16.4463H128.199V26.1256C128.199 30.2804 130.314 32.3548 134.549 32.3548H137.704V28.0793H135.372C134.607 28.0793 134.066 27.9279 133.741 27.6249C133.417 27.3219 133.258 26.8366 133.258 26.1596V16.4463H137.704Z" fill="#F3E1C7"/>
<path id="Vector_7" d="M159.289 21.8811C159.289 19.9273 158.879 18.193 158.053 16.6813C157.227 15.1727 156.067 14.0072 154.57 13.1849C153.074 12.3626 151.384 11.9514 149.493 11.9514C147.602 11.9514 145.799 12.3749 144.29 13.222C142.782 14.069 141.613 15.2747 140.777 16.8451C139.939 18.4156 139.522 20.2426 139.522 22.317C139.522 24.3913 139.948 26.1844 140.795 27.7517C141.643 29.3222 142.828 30.5371 144.346 31.3965C145.867 32.2559 147.58 32.6794 149.493 32.6794C151.862 32.6794 153.857 32.0612 155.485 30.8153C157.114 29.5695 158.212 27.9805 158.788 26.0514H153.371C152.581 27.6682 151.253 28.4782 149.386 28.4782C148.094 28.4782 147.005 28.067 146.124 27.2447C145.239 26.4255 144.734 25.2909 144.615 23.838H159.143C159.237 23.2568 159.286 22.6045 159.286 21.8811H159.289ZM144.652 20.4343C144.844 19.0803 145.365 18.023 146.212 17.2625C147.06 16.502 148.107 16.1218 149.349 16.1218C150.665 16.1218 151.779 16.5144 152.688 17.2996C153.594 18.0848 154.062 19.1297 154.084 20.4374H144.648L144.652 20.4343Z" fill="#F3E1C7"/>
<path id="Vector_8" d="M172.177 22.354L180.93 12.279H174.399L167.724 20.7959V7.31421H162.702V32.3548H167.724V23.8039L174.469 32.3548H181L172.177 22.354Z" fill="#F3E1C7"/>
</g>
</g>
</svg>
